<svg id="Capa_1" data-name="Capa 1" xmlns="http://www.w3.org/2000/svg" viewBox="0 0 83.8 107.7"><defs><style>.cls-1{fill:#fff;}</style></defs><path class="cls-1" d="M63.1,80.4c-6.6-.5-9.3-3.7-14.5-6.9-2.8,14.9-6.2,29.1-16.5,36.5C29,87.6,36.8,70.8,40.4,52.9c-6.2-10.4.7-31.3,13.8-26.1,16,6.3-13.9,38.6,6.1,42.6S89.8,33.1,76.9,19.9C58.1.8,22.2,19.4,26.6,46.7c1.1,6.7,8,8.7,2.8,17.9-12-2.7-15.6-12.1-15.2-24.8C15,19.2,32.8,4.7,50.7,2.7,73.3.1,94.6,11,97.5,32.3c3.3,24-10.2,50-34.4,48.1Z" transform="translate(-14.2 -2.3)"/></svg>